<svg xmlns="http://www.w3.org/2000/svg" width="35" height="35" viewBox="0 0 35 35">
  <g id="Bird" transform="translate(-281.128 -256.415)">
    <path id="Path_17011" data-name="Path 17011" d="M9,0H26a9,9,0,0,1,9,9V26a9,9,0,0,1-9,9H9a9,9,0,0,1-9-9V9A9,9,0,0,1,9,0Z" transform="translate(281.128 256.415)" fill="#819aeb"/>
    <path id="Path_16992" data-name="Path 16992" d="M293.148,272.529a1.914,1.914,0,0,0-1.272,1.4,7.76,7.76,0,0,0-.2,2.686l.483,1.719.591,1.254s.757,2.608,1.522,3.331a3.977,3.977,0,0,0,2.328,2.919s.123,1.263.5.121l.431.478s.3.3.233-.517h.179s.752.466.663-.363c0,0,1.648.056,1.952.491s.459.852.622.771.214-.55.214-.55v-.221s.316.676.509.4a.843.843,0,0,0,.193-.4s.407.2.478,0a4.339,4.339,0,0,0,.132-.6l.214.01a9.3,9.3,0,0,0,4.021,1.537,9.09,9.09,0,0,0,2.484.071l.061-.214-.733-.336a8.7,8.7,0,0,1-1.629-.774l1.741.519s2.6.163,2.657-.163l-.2-.2-.58-.092a14.463,14.463,0,0,1-2.474-1.344,12.942,12.942,0,0,1-2.148-2.514l1.049.081s1.507.392,1.547.11-.641-1.057-.641-1.057a8.483,8.483,0,0,0,2.179.57c.428-.092.662-.306.529-.56a19.014,19.014,0,0,0-2.423-1.537,9.764,9.764,0,0,1-1.537-1.334,24.047,24.047,0,0,1-2.372-3.706c-.764-1.527-1.578-2.85-2.769-3.146,0,0-.926-1.435-1.2-1.985s-.886-2.189-.886-2.189a3.306,3.306,0,0,0-2.4-1.985,6.574,6.574,0,0,0,1.364-1.425c.265-.55.316-1.466.122-1.5s-.265.631-.8,1.028c0,0,.254-1.639-.132-1.7s-.244,1.2-1.1,2.036v-.407a5.823,5.823,0,0,0,.244-1.934c-.071-.957-.376-1.667-.631-1.568l-.122.305a14.691,14.691,0,0,1-.254,2.728c-.244.9-.5,1.558-.5,1.558l-.4.53s.132-1.354-.163-1.293-.754,1.914-1.069,2.3a4.691,4.691,0,0,1-1.282.886.552.552,0,0,0-.336.428c0,.122.366,1.323.366,1.323a8.783,8.783,0,0,0,.4,2.428l.316.545Z" transform="translate(-0.845 -1.108)" fill="#e6e6e6"/>
    <path id="Path_16993" data-name="Path 16993" d="M293.131,342.943s-.243,1.089-.449,2.166a11.807,11.807,0,0,0,0,4.581,4.855,4.855,0,0,1-1.059-2.978C291.584,344.857,291.908,343.228,293.131,342.943Z" transform="translate(-0.828 -71.522)" fill="#fff"/>
    <path id="Path_16994" data-name="Path 16994" d="M363.809,417.029s3,2.965,6.571,3.057c0,0-.737.085-1.068.116a9.778,9.778,0,0,1-5.708-1.773Z" transform="translate(-61.738 -134.211)" fill="#fff"/>
    <path id="Path_16995" data-name="Path 16995" d="M309.288,411.824a9.827,9.827,0,0,0,2.09,1.736,8.24,8.24,0,0,0,1.694.625l.5.139s-.033.421-.248.421a1.729,1.729,0,0,1-.631-.289s.066.633-.078.656-.512-.588-.512-.588-.214.695-.4.588-.166-.577-.166-.577a3.393,3.393,0,0,1-1.717-1.4A4.368,4.368,0,0,1,309.288,411.824Z" transform="translate(-15.778 -129.807)" fill="#fff"/>
    <path id="Path_16996" data-name="Path 16996" d="M296.534,360.749s.124-2.322,1.627-2.385c1.6-.068,2.885.33,4.048,2.569s1.693,3.808,2.479,5.1c.9,1.479.424,3.63-1.51,2.983l-1.147-.169a4.055,4.055,0,0,1-1.445-.525,6.819,6.819,0,0,1-2.242-2.137A13.33,13.33,0,0,1,296.534,360.749Z" transform="translate(-4.986 -84.565)" fill="#fff"/>
    <path id="Path_16997" data-name="Path 16997" d="M352.929,431.767l-.124.615s-.247.688,0,.846a1,1,0,0,0,.564.129l.347-.049s.226.994.467.931.167-.663.167-.663l.089-.426.4-.145s.119,1.284.475,1.145.347-.693.347-.693.089.443.208.449.417-.568.417-.568.711-1.683-.685-1.664c0,0-.534-.47-.871-.324s-.376.133-.376.133l-.247-.353h-.347s-.02.475-.247.445a.907.907,0,0,1-.446-.274Z" transform="translate(-52.507 -146.142)" fill="#f2ab4f"/>
    <path id="Path_16998" data-name="Path 16998" d="M294.167,313.185s-.351-.348-.081-1.209.86-2.119,1.708-2.311a.745.745,0,0,1,.539.424,2.753,2.753,0,0,0,.565.95c.193.128.692.385.609.629s-.468.424-.468.424l-.449.128s-.254,1.579-.872,1.669-.911-.869-.911-.869l-.361.266A.27.27,0,0,1,294.167,313.185Z" transform="translate(-2.828 -43.364)" fill="#f4b253"/>
    <path id="Path_16999" data-name="Path 16999" d="M306.659,432.215s-.147-.073-.064-.422.295-1.3.936-1.44a9.471,9.471,0,0,1,2.5.292l-.184-.824-.026-.158s.411.362.549.286.064-.578.064-.578l.367.221.128,1.053s1.376.056,1.431.919c0,0-.055.229-.174.229a2.388,2.388,0,0,1-.541-.239l-.615-.266-1.138-.048s-.706-.021-.761,0-.44.076-.44.076a11.614,11.614,0,0,1-1.119,1.1c-.11.009-.174-.183-.184-.211s-.018-.284-.018-.284A1.352,1.352,0,0,1,306.659,432.215Z" transform="translate(-13.477 -144.655)" fill="#f2ab4f"/>
    <path id="Path_17000" data-name="Path 17000" d="M310.4,431l-.1-.941-.23.024.108,1.036a.116.116,0,0,0,.106.1c.888.071,1.418.4,1.383.849-.006.083-.027.114-.037.12-.068.034-.308-.112-.453-.2a3,3,0,0,0-.312-.174,9.8,9.8,0,0,0-2.409-.174c-.371.015-.78.458-1.11.813a2.2,2.2,0,0,1-.377.36,1.4,1.4,0,0,1,.238-1.145.6.6,0,0,1,.383-.323.775.775,0,0,1,.445.038l.279.089c-.013-.01-.414-.424-.768-.354a.812.812,0,0,0-.54.435,2.475,2.475,0,0,0-.272.69,1.7,1.7,0,0,1-.622.406,1.48,1.48,0,0,1,.085-.647,1.638,1.638,0,0,1,.659-.984,6.028,6.028,0,0,1,2.617.271.115.115,0,0,0,.142-.142l-.328-1.177-.222.062.274.983a5.582,5.582,0,0,0-2.579-.206,2.209,2.209,0,0,0-.886,1.805c.012.145.064.231.155.256a.25.25,0,0,0,.066.008,1.2,1.2,0,0,0,.6-.3.607.607,0,0,0,.1.379.224.224,0,0,0,.175.086.24.24,0,0,0,.075-.012,1.606,1.606,0,0,0,.474-.423c.284-.307.674-.729.949-.739a9.676,9.676,0,0,1,2.306.154,2.839,2.839,0,0,1,.286.16c.255.155.5.3.678.208a.345.345,0,0,0,.162-.307C311.94,431.517,311.369,431.1,310.4,431Z" transform="translate(-12.887 -145.169)" fill="#6e3117"/>
    <path id="Path_17001" data-name="Path 17001" d="M355.536,431.856a.82.82,0,0,0-.855-.593l0,.036a.738.738,0,0,0-.065-.08.848.848,0,0,0-.666-.238,1.11,1.11,0,0,0-.5.12.591.591,0,0,1-.106-.292l-.23.017a.465.465,0,0,1-.08.745.754.754,0,0,0-.272,0,.608.608,0,0,0-.473.665l.042.314c0-.02.054-.676.472-.752a.324.324,0,0,1,.261.036c.154.118.186.5.223.936l0,.044c.086,1.011-.047,1.061-.058,1.064-.055-.012-.253-.077-.384-1.186l-.12-.5a3.141,3.141,0,0,0-.032.718c-.187.064-.6.163-.742.012l-.013-.012c-.011-.009-.265-.217-.018-.669a.847.847,0,0,0,.082-.222l.1-.463-.225-.05-.1.463a.617.617,0,0,1-.059.162.733.733,0,0,0,.074.957.586.586,0,0,0,.426.144,1.753,1.753,0,0,0,.5-.087,1.588,1.588,0,0,0,.354.908.253.253,0,0,0,.156.058l.034,0c.278-.044.317-.463.27-1.135a.406.406,0,0,0,.048,0,.456.456,0,0,0,.239-.069c.041.77.25,1.136.49,1.136.192,0,.317-.163.4-.447a.358.358,0,0,0,.072.106.208.208,0,0,0,.145.061h.006a.3.3,0,0,0,.209-.145A2.7,2.7,0,0,0,355.536,431.856Zm-1.22,1.95c-.026,0-.108-.077-.176-.43-.063-.326-.063-.326-.163-1.013l-.109-.611a8.156,8.156,0,0,0-.05.852.335.335,0,0,1-.3.118c-.041-.49-.075-.853-.272-1.041a.681.681,0,0,1,.711-.47.624.624,0,0,1,.493.166,1.52,1.52,0,0,1,.2,1.127C354.561,433.637,354.4,433.806,354.316,433.806Zm.621-.293a1.147,1.147,0,0,1-.121-.4c.025-.179.045-.378.062-.6a2.394,2.394,0,0,0-.089-1.026.576.576,0,0,1,.526.426A2.48,2.48,0,0,1,354.937,433.513Z" transform="translate(-51.572 -145.871)" fill="#6e3117"/>
    <g id="Group_35721" data-name="Group 35721" transform="translate(290.642 258.418)">
      <path id="Path_17002" data-name="Path 17002" d="M304.113,340.671a.446.446,0,0,0,.087.092.327.327,0,0,0,.136.064.3.3,0,0,0,.079.006.354.354,0,0,0,.072-.011.458.458,0,0,0,.125-.056.623.623,0,0,0,.165-.16,1.422,1.422,0,0,0,.175-.347c.033-.09.06-.181.083-.272.05.087.1.172.161.257a2.033,2.033,0,0,0,.245.3.755.755,0,0,0,.18.135.4.4,0,0,0,.138.043.32.32,0,0,0,.086,0,.327.327,0,0,0,.081-.024.437.437,0,0,0,.114-.076.724.724,0,0,0,.078-.083,1.285,1.285,0,0,0,.114-.17,2.857,2.857,0,0,0,.163-.344c.05-.125.094-.25.135-.376l.014.019a1.669,1.669,0,0,0,.263.274.879.879,0,0,0,.37.187.623.623,0,0,0,.227.005.486.486,0,0,0,.227-.1.689.689,0,0,0,.146-.167,1.112,1.112,0,0,0,.091-.178,2.028,2.028,0,0,0,.1-.358c.018-.088.032-.176.043-.264l.008.009a1.176,1.176,0,0,0,.109.119.914.914,0,0,0,.133.1.925.925,0,0,0,.154.079.6.6,0,0,0,.36.033.611.611,0,0,0,.3-.174,1.145,1.145,0,0,0,.182-.254,1.932,1.932,0,0,0,.122-.274c.034-.093.063-.187.087-.282a2.856,2.856,0,0,1-.307.491,1,1,0,0,1-.2.19.434.434,0,0,1-.22.085.36.36,0,0,1-.208-.059.927.927,0,0,1-.186-.161c-.03-.031-.062-.06-.092-.093a1.3,1.3,0,0,1-.084-.1c-.027-.036-.052-.074-.077-.112s-.049-.079-.067-.114a.154.154,0,0,0-.29.071c0,.106-.008.22-.019.329s-.027.219-.048.326a1.747,1.747,0,0,1-.088.3.559.559,0,0,1-.144.221.175.175,0,0,1-.084.038.312.312,0,0,1-.116,0A.579.579,0,0,1,307,339.7a1.36,1.36,0,0,1-.214-.223c-.033-.042-.064-.086-.093-.13l-.043-.068c-.013-.022-.028-.047-.038-.066a.154.154,0,0,0-.286.032h0a5.9,5.9,0,0,1-.218.663,2.572,2.572,0,0,1-.144.306.983.983,0,0,1-.086.129.262.262,0,0,1-.078.071c-.008,0,0,0-.009,0a.1.1,0,0,1-.032-.011.462.462,0,0,1-.1-.081,1.73,1.73,0,0,1-.206-.256,4.84,4.84,0,0,1-.342-.6h0a.154.154,0,0,0-.292.047c-.015.106-.036.218-.061.325a2.751,2.751,0,0,1-.092.315,1.13,1.13,0,0,1-.135.271.3.3,0,0,1-.081.081.086.086,0,0,1-.034.012h-.021a.046.046,0,0,1-.023,0,.14.14,0,0,1-.04-.026.472.472,0,0,1-.086-.109,1.7,1.7,0,0,1-.134-.3c-.038-.106-.071-.216-.1-.328s-.055-.225-.079-.339a3.735,3.735,0,0,0,.011.706,1.69,1.69,0,0,0,.078.362A.745.745,0,0,0,304.113,340.671Z" transform="translate(-301.876 -326.113)" fill="#0c2d3a"/>
      <path id="Path_17003" data-name="Path 17003" d="M310.584,284.706a7.564,7.564,0,0,1-3.778-2.181,11.127,11.127,0,0,1-1.233-1.474c.386.038.739.052,1.048.052l.089.036a3.217,3.217,0,0,0,.468.148c.041.009.083.016.124.024s.086.01.128.015.089,0,.133,0l.069-.006a.468.468,0,0,0,.07-.009l.071-.016.018,0,.024-.009a.252.252,0,0,0,.052-.026l.026-.017.025-.023a.245.245,0,0,0,.042-.056.294.294,0,0,0,.026-.062.419.419,0,0,0,.01-.058.452.452,0,0,0-.027-.174.877.877,0,0,0-.056-.129,2.618,2.618,0,0,0-.282-.41l-.061-.071c.2.076.437.158.683.228.946.271,1.548.226,1.79-.131a.422.422,0,0,0,.074-.346c-.07-.286-.434-.483-1.036-.808a9.858,9.858,0,0,1-3.221-2.511,12.215,12.215,0,0,1-1.624-2.318c-.066-.126-.133-.256-.224-.411-.076-.13-.176-.343-.291-.59-.493-1.053-1.352-2.886-2.675-3.233l.016-.018a8.245,8.245,0,0,1-1.724-2.972c-.19-.453-.387-.922-.609-1.389a2.98,2.98,0,0,0-2.064-1.74c1.452-1.166,1.582-2.305,1.433-2.768-.082-.255-.231-.283-.291-.283h0c-.055,0-.189.023-.256.234a2.022,2.022,0,0,1-.286.557c.062-.637-.015-1.329-.311-1.411-.272-.075-.4.331-.437.464a5.212,5.212,0,0,1-.521,1.119,4.614,4.614,0,0,0-.177-3.313.342.342,0,0,0-.4-.192.347.347,0,0,0-.271.348c.01.48-.012,1.083-.066,1.792a6.274,6.274,0,0,1-.774,2.779,1.537,1.537,0,0,0-.066-.988.255.255,0,0,0-.218-.091c-.312.024-.452.407-.665.986a11.3,11.3,0,0,1-.548,1.3,1.415,1.415,0,0,1-.978.812c-.277.088-.563.179-.628.6a2.44,2.44,0,0,0,.329,1.5l.261-.163a2.16,2.16,0,0,1-.286-1.291c.034-.223.134-.266.417-.355a1.716,1.716,0,0,0,1.159-.965,11.582,11.582,0,0,0,.563-1.336,2.16,2.16,0,0,1,.373-.777,3.781,3.781,0,0,1-.135,1.339l-.107.46.357-.309c.043-.037,1.061-.945,1.253-3.482.054-.719.077-1.331.066-1.821a.038.038,0,0,1,.033-.042.036.036,0,0,1,.047.022c.347.745.646,1.878-.129,4.038l-.3.837.564-.688a6.964,6.964,0,0,0,1.136-2.034,1.246,1.246,0,0,1,.077-.2,3.008,3.008,0,0,1-.011,1.515l-.112.452.36-.3a2.533,2.533,0,0,0,.689-.992.975.975,0,0,1,.022.292A3.278,3.278,0,0,1,296.186,264l-.39.279h.479a2.608,2.608,0,0,1,2.178,1.615c.219.461.414.926.6,1.376a9.871,9.871,0,0,0,1.534,2.814,1.814,1.814,0,0,0-.218.015,2.782,2.782,0,0,0-2.11,1.814,5.711,5.711,0,0,0,.864,5.562,8.739,8.739,0,0,0,6.044,3.53,10.931,10.931,0,0,0,1.411,1.733,7.9,7.9,0,0,0,3.9,2.262,6.671,6.671,0,0,1-4.117-.6l-1.2-.6,1.039.852a7.231,7.231,0,0,0,2.277,1.175l.006,0a.02.02,0,0,1,0,.018h-.008c-1.553.024-4.449-.173-6.464-1.736,0-.054,0-.112,0-.173a3.915,3.915,0,0,1,1.194-2.426l.3-.248c-1,.228-1.778,1.823-1.759,2.679a1.834,1.834,0,0,1-.081.8l-.006.006-.011.019c-.041.072-.078.077-.09.079a.346.346,0,0,1-.217-.107l-.32-.321.093.444a.518.518,0,0,1-.117.432l-.008.007a.906.906,0,0,1-.282-.406l-.232-.548-.026.594c-.022.493-.1.608-.122.63a.177.177,0,0,1-.048-.034.389.389,0,0,1-.1-.159c-.42-1.2-2.4-1.063-2.63-1.043-3.844-.658-5.145-4.6-5.453-5.8l-.011-.046.009-.006-.016-.026a10.6,10.6,0,0,1,.124-5.62c.032-.125.062-.242.088-.35a8.345,8.345,0,0,0,.176-2.259l-.268.02a8.568,8.568,0,0,1-.006,1.03c-.337.1-1.361.587-1.517,2.808a7.9,7.9,0,0,0,1.164,4.569l.01-.006a9.929,9.929,0,0,0,1.453,3.187,5.478,5.478,0,0,0,.482,1.22,3.442,3.442,0,0,0,1.892,1.72c.022.2.08.534.225.624a.182.182,0,0,0,.1.029.187.187,0,0,0,.069-.013.715.715,0,0,0,.3-.418c.138.25.325.489.515.419s.209-.307.2-.508a.82.82,0,0,0,.553.146c.2-.061.258-.307.274-.466.591,0,1.745.1,2.016.876a.658.658,0,0,0,.174.269.348.348,0,0,0,.235.106.246.246,0,0,0,.094-.019c.122-.051.2-.193.249-.449a.489.489,0,0,0,.265.19.271.271,0,0,0,.247-.081.7.7,0,0,0,.2-.4.422.422,0,0,0,.211.03.384.384,0,0,0,.282-.2.886.886,0,0,0,.123-.434,11.062,11.062,0,0,0,6.256,1.675l.231,0a.319.319,0,0,0,.089-.623,6.663,6.663,0,0,1-.831-.317,6.94,6.94,0,0,0,2.854.075.3.3,0,0,0,0-.586Zm-11.208-7.413a5.4,5.4,0,0,1-.831-5.259,2.486,2.486,0,0,1,1.867-1.631c1.49-.192,2.493,1.95,3.032,3.1.124.264.221.472.3.615s.153.276.217.4a12.461,12.461,0,0,0,1.657,2.369,10.128,10.128,0,0,0,3.314,2.589c.454.245.846.457.883.611,0,.012.01.042-.03.1-.3.442-1.806-.042-2.686-.45l-.008.016-.116-.114a13.908,13.908,0,0,0-1.445-1.211c.423.465.856.916,1.271,1.379l.174.2-.006.012.027.012c.139.159.275.32.4.486a2.505,2.505,0,0,1,.241.367.6.6,0,0,1,.037.087.236.236,0,0,1,.01.038l-.041.009a.257.257,0,0,1-.046.006l-.048,0c-.034,0-.067,0-.1,0s-.069-.006-.1-.012l-.106-.019a3.207,3.207,0,0,1-.43-.124c-.064-.022-.127-.046-.19-.071h0c-.079-.031-.157-.064-.235-.1q-.211-.092-.42-.194c-.14-.067-.278-.137-.416-.208s-.276-.144-.413-.218c-.276-.146-.548-.3-.823-.452.237.208.488.4.744.58s.521.354.8.512l.1.056A8.6,8.6,0,0,1,299.376,277.292Zm-8.41-3.174a3.4,3.4,0,0,1,.749-2.172,1.4,1.4,0,0,1,.432-.317,6.326,6.326,0,0,1-.134.807c-.025.1-.055.221-.087.345a10.977,10.977,0,0,0-.321,4.8A7.512,7.512,0,0,1,290.966,274.119Zm5.824,11.088a1.478,1.478,0,0,1-.361-.559l-.138-.318-.08.337a1.414,1.414,0,0,1-.221.527,1.623,1.623,0,0,1-.109-.5l-.006-.078-.075-.023a3.554,3.554,0,0,1-2.089-2.194,6.317,6.317,0,0,0,3.059,2.046l.045.271A.856.856,0,0,1,296.79,285.207Zm.763-.362A1.061,1.061,0,0,1,297,284.6l-.212-.154a6.3,6.3,0,0,0,.722.165l.018,0,.018,0s.046,0,.119-.008C297.647,284.718,297.611,284.827,297.553,284.845Z" transform="translate(-290.642 -258.418)" fill="#0c2d3a"/>
    </g>
    <g id="Group_35722" data-name="Group 35722" transform="translate(291.032 266.174)">
      <path id="Path_17004" data-name="Path 17004" d="M296.923,310.869a.917.917,0,0,0-.6-.676c-.186-.075-.354-.42-.488-.7-.166-.343-.31-.639-.553-.656-.476-.034-1.011.118-1.7,1.449a3.98,3.98,0,0,0-.4,2.075.453.453,0,0,0,.325.408.467.467,0,0,0,.134.02.46.46,0,0,0,.368-.185h0l.042-.054c.141.3.434.774.883.774a.679.679,0,0,0,.15-.017c.613-.139.939-1.351,1.029-1.742a1.323,1.323,0,0,0,.569-.16A.564.564,0,0,0,296.923,310.869Zm-1.906,2.141c-.374.085-.646-.482-.737-.705a2.811,2.811,0,0,1,1.505-.685C295.641,312.19,295.348,312.935,295.017,313.01Zm1.481-1.848a1.55,1.55,0,0,1-.467.107,3.183,3.183,0,0,0-2.267,1.152h0a.151.151,0,0,1-.168.056.146.146,0,0,1-.106-.134,3.673,3.673,0,0,1,.366-1.913c.6-1.165,1.019-1.288,1.292-1.288.04,0,.076,0,.11.005.074.019.215.31.3.483.166.342.354.73.651.849a.62.62,0,0,1,.409.43A.262.262,0,0,1,296.5,311.162Z" transform="translate(-293.174 -308.836)" fill="#7a371a"/>
      <path id="Path_17005" data-name="Path 17005" d="M303.274,316.153a.353.353,0,0,0-.146-.021.344.344,0,0,0-.16.052.332.332,0,0,0-.116.125.343.343,0,0,0-.04.145.349.349,0,0,0,.087.253c.064-.073.1-.136.144-.181a.475.475,0,0,1,.052-.054.311.311,0,0,1,.039-.028.429.429,0,0,1,.117-.051c.059-.018.13-.033.222-.06A.342.342,0,0,0,303.274,316.153Z" transform="translate(-301.329 -315.009)" fill="#7a371a"/>
    </g>
    <path id="Path_17006" data-name="Path 17006" d="M317.462,307.706l2.131-.457a1.06,1.06,0,0,0-1.411-.964S317.293,306.448,317.462,307.706Z" transform="translate(-22.676 -40.476)" fill="#fff"/>
    <path id="Path_17007" data-name="Path 17007" d="M316.994,306.592a1.207,1.207,0,0,1-.074-.235,1.506,1.506,0,0,1-.032-.248,1.252,1.252,0,0,1,.08-.512.977.977,0,0,1,.335-.437c.019-.014.039-.026.059-.039a.516.516,0,0,1,.061-.035l.062-.032.064-.026a1.215,1.215,0,0,1,.13-.042c.044-.012.088-.019.132-.029s.088-.011.132-.015.086-.006.13-.006a1.563,1.563,0,0,1,.265.022,1.1,1.1,0,0,1,.262.078,1.053,1.053,0,0,1,.124.064,1.076,1.076,0,0,1,.113.083.9.9,0,0,1,.282.454,1.021,1.021,0,0,1,.034.253.908.908,0,0,1-.029.246,1.485,1.485,0,0,0-.163-.436.826.826,0,0,0-.286-.3.754.754,0,0,0-.182-.08.992.992,0,0,0-.2-.038,1.422,1.422,0,0,0-.212-.005c-.036,0-.072,0-.108.007l-.106.014c-.034.007-.069.012-.1.02s-.067.017-.1.029a.877.877,0,0,0-.18.083.853.853,0,0,0-.153.122.887.887,0,0,0-.122.161,1.4,1.4,0,0,0-.156.409A2.8,2.8,0,0,0,316.994,306.592Z" transform="translate(-22.208 -39.362)" fill="#161615"/>
    <path id="Path_17008" data-name="Path 17008" d="M323.361,317.364a1.13,1.13,0,1,0,.8-1.251A1.054,1.054,0,0,0,323.361,317.364Z" transform="translate(-27.656 -48.775)" fill="#f1bdd2"/>
    <path id="Path_17009" data-name="Path 17009" d="M320.893,309.349a.806.806,0,0,0-.106.025l.048.43-.367-.2a.962.962,0,0,0-.13.624l1.446-.31A.82.82,0,0,0,320.893,309.349Z" transform="translate(-25.121 -43.086)" fill="#0e0e0d"/>
    <path id="Path_17010" data-name="Path 17010" d="M315.578,301.646a1.765,1.765,0,0,1,1.962-.865S315.782,299.748,315.578,301.646Z" transform="translate(-21.1 -35.609)" fill="#f1bdd2"/>
  </g>
</svg>
