<svg xmlns="http://www.w3.org/2000/svg" width="35" height="35" viewBox="0 0 35 35">
  <g id="Group_35715" data-name="Group 35715" transform="translate(-601.928 -255.605)">
    <rect id="Rectangle_36" data-name="Rectangle 36" width="35" height="35" rx="9" transform="translate(601.928 255.605)" fill="#eb81a5"/>
    <path id="Path_16937" data-name="Path 16937" d="M7.843,0c4.331,0,7.843.568,7.843,1.268S12.174,2.536,7.843,2.536,0,1.968,0,1.268,3.511,0,7.843,0Z" transform="translate(610.33 283.378)" fill="#e2759a"/>
    <g id="Group_35714" data-name="Group 35714" transform="translate(610.314 258.066)">
      <g id="Group_35703" data-name="Group 35703" transform="translate(3.185 22.986)">
        <path id="Path_16875" data-name="Path 16875" d="M636.991,425.833a22.878,22.878,0,0,1-3.681-.274.937.937,0,0,1-.8-1.081.984.984,0,0,1,1.146-.752c2.792.472,7.907.329,9.894-.977a1.446,1.446,0,0,0,.62-.752c.6-1.743-1.52-2.541-1.974-2.295-.472.256-.759-.727-.56-1.206s.646-.38,1.155-.193c1.4.514,3.45,1.69,3.009,4.033a2.9,2.9,0,0,1-1.411,1.906C642.685,425.367,639.824,425.833,636.991,425.833Z" transform="translate(-632.497 -418.151)" fill="#fff"/>
      </g>
      <path id="Path_16876" data-name="Path 16876" d="M643.576,437.946a15.4,15.4,0,0,1-8.346,1.108c-2.6-.316-2.719-.832-2.715-.941a.937.937,0,0,0,.8,1.06,22.876,22.876,0,0,0,3.681.274c2.834,0,5.695-.466,7.4-1.589a2.886,2.886,0,0,0,1.171-3.812C646.075,435.429,645.751,436.845,643.576,437.946Z" transform="translate(-629.317 -408.778)" opacity="0.07"/>
      <g id="Group_35704" data-name="Group 35704" transform="translate(0 13.242)">
        <rect id="Rectangle_49" data-name="Rectangle 49" width="6.675" height="8.557" rx="3.338" transform="translate(4.547 4.554)" fill="#dcdcde"/>
        <path id="Path_16877" data-name="Path 16877" d="M612.664,388.772a2.774,2.774,0,0,0-2.184,2.117,3.466,3.466,0,0,0,1.385,4.021,6.384,6.384,0,0,1,1.225.772s-.439-.053-.546.226.04.706.479.6c0,0,.027.28.652.133a.7.7,0,0,0,.732.08,1.49,1.49,0,0,1,.826-.08l.639-1.238Z" transform="translate(-610.314 -383.246)" fill="#fff"/>
        <path id="Path_16878" data-name="Path 16878" d="M625.013,389.235a7.348,7.348,0,0,0,1.105,3.276,18.015,18.015,0,0,1,1.664,3.089,2.771,2.771,0,0,1,0,.479l.732-.28-1.052-3.182Z" transform="translate(-622.902 -383.643)" opacity="0.07"/>
        <path id="Path_16879" data-name="Path 16879" d="M625.057,350.332a8.046,8.046,0,0,0,.142,8.522,19.323,19.323,0,0,1,1.988,3.551s-.755-.093-.9.453.266.919.6.825c0,0,.187.386.866.146,0,0,.213.226.919.053s1.052-.373,1.119-.546a2.647,2.647,0,0,0,.08-1.438,24.311,24.311,0,0,0-.533-2.45,11.822,11.822,0,0,0-1.518-2.756,4.028,4.028,0,0,1,.839,1.012,8.276,8.276,0,0,1,.892,1.864c.16.533.426,1.944.426,1.944V350.288Z" transform="translate(-621.966 -350.288)" fill="#fff"/>
        <path id="Path_16880" data-name="Path 16880" d="M613.839,409.023a7.283,7.283,0,0,1-2.349-1.279,3.219,3.219,0,0,1-1.048-3.146,3.447,3.447,0,0,0,1.427,3.866,6.387,6.387,0,0,1,1.225.772C613.639,409.369,614.039,409.143,613.839,409.023Z" transform="translate(-610.317 -396.8)" opacity="0.07"/>
        <path id="Path_16881" data-name="Path 16881" d="M686.472,388.772a2.774,2.774,0,0,1,2.184,2.117,3.466,3.466,0,0,1-1.385,4.021,6.384,6.384,0,0,0-1.225.772s.439-.053.546.226-.04.706-.479.6c0,0-.027.28-.652.133a.7.7,0,0,1-.732.08,1.49,1.49,0,0,0-.825-.08l-.639-1.238Z" transform="translate(-672.789 -383.246)" fill="#fff"/>
        <path id="Path_16882" data-name="Path 16882" d="M686.394,389.235a7.347,7.347,0,0,1-1.105,3.276,18.012,18.012,0,0,0-1.664,3.089,2.79,2.79,0,0,0,0,.479l-.732-.28,1.052-3.182Z" transform="translate(-672.471 -383.643)" opacity="0.07"/>
        <path id="Path_16883" data-name="Path 16883" d="M665.453,350.332a8.046,8.046,0,0,1-.142,8.522,19.334,19.334,0,0,0-1.988,3.551s.755-.093.9.453-.266.919-.6.825c0,0-.186.386-.866.146,0,0-.213.226-.919.053s-1.052-.373-1.119-.546a2.647,2.647,0,0,1-.08-1.438,24.289,24.289,0,0,1,.533-2.45,11.813,11.813,0,0,1,1.518-2.756,4.028,4.028,0,0,0-.839,1.012,8.279,8.279,0,0,0-.892,1.864c-.16.533-.426,1.944-.426,1.944l-.95-11.225Z" transform="translate(-652.511 -350.288)" fill="#fff"/>
        <path id="Path_16884" data-name="Path 16884" d="M697.139,409.023a5.637,5.637,0,0,0,2.221-1.244,3.077,3.077,0,0,0,1.176-3.181,3.447,3.447,0,0,1-1.427,3.866,6.384,6.384,0,0,0-1.225.772C697.339,409.369,696.94,409.143,697.139,409.023Z" transform="translate(-684.628 -396.8)" opacity="0.07"/>
      </g>
      <path id="Path_16885" data-name="Path 16885" d="M681.639,440.544a.51.51,0,0,0-.241-.744c.376.279.041.689.041.689A1.483,1.483,0,0,0,681.639,440.544Z" transform="translate(-671.191 -413.705)" opacity="0.07"/>
      <path id="Path_16886" data-name="Path 16886" d="M686.381,439.769a.707.707,0,0,0-.42-.648c.307.153.252.64.252.64A.4.4,0,0,0,686.381,439.769Z" transform="translate(-675.099 -413.124)" opacity="0.07"/>
      <g id="Group_35705" data-name="Group 35705" transform="translate(2.931 13.239)">
        <path id="Path_16887" data-name="Path 16887" d="M635.874,354.084a5.415,5.415,0,0,1-5.148-3.719l.321-.094a5,5,0,0,0,4.826,3.478,4.776,4.776,0,0,0,4.7-3.473l.324.083A5.189,5.189,0,0,1,635.874,354.084Z" transform="translate(-630.726 -350.271)" fill="#efbf43"/>
      </g>
      <g id="Group_35708" data-name="Group 35708" transform="translate(6.308 17.267)">
        <g id="Group_35707" data-name="Group 35707">
          <g id="Group_35706" data-name="Group 35706">
            <path id="Path_16888" data-name="Path 16888" d="M656.921,378.536a.57.57,0,0,0-.39-.2.791.791,0,0,0-.627.193c-.062.058-.182.176-.265.164v0c-.078.008-.12-.057-.18-.114a.906.906,0,0,0-.695-.241.57.57,0,0,0-.389.206.69.69,0,0,0-.127.525,2.016,2.016,0,0,0,.635,1.028c.215.225.291.32.4.423a.617.617,0,0,0,.326.181h0a.631.631,0,0,0,.319-.164,6.452,6.452,0,0,0,.489-.443,1.85,1.85,0,0,0,.619-1.021A.722.722,0,0,0,656.921,378.536Z" transform="translate(-654.243 -378.324)" fill="#efbf43"/>
          </g>
          <path id="Path_16889" data-name="Path 16889" d="M656.081,379.32a.507.507,0,0,0-.494-.075.429.429,0,0,0-.275.494c.022.2.275.378.393.123.066-.142-.238-.464.375-.542" transform="translate(-655.154 -379.08)" fill="#fff" opacity="0.42"/>
          <path id="Path_16890" data-name="Path 16890" d="M668.032,379.794a.507.507,0,0,0-.006-.5.429.429,0,0,0-.532-.191c-.195.054-.328.333-.057.408.15.042.419-.31.6.282" transform="translate(-665.411 -378.969)" fill="#fff" opacity="0.42"/>
        </g>
        <path id="Path_16891" data-name="Path 16891" d="M654.885,383.278c.215.225.291.32.4.423a.616.616,0,0,0,.326.18.63.63,0,0,0,.319-.164,6.456,6.456,0,0,0,.489-.443,1.9,1.9,0,0,0,.615-1c-.154.315-.686,1.257-1.488,1.138-.869-.129-1.236-1.177-1.3-1.375a.9.9,0,0,0,0,.208A2.015,2.015,0,0,0,654.885,383.278Z" transform="translate(-654.244 -381.509)" fill="#6c4d2e" opacity="0.08"/>
      </g>
      <g id="Group_35709" data-name="Group 35709" transform="translate(0.92)">
        <path id="Path_16892" data-name="Path 16892" d="M621.934,261.21c.535.808-4.208,4.3-4.208,4.3a5.5,5.5,0,0,1-.963-2.409c-.137-1.017.113-1.145.113-1.145a10.167,10.167,0,0,1,.492-2.89c.458-1.165.535-1.064,1.013-.906A8.287,8.287,0,0,1,621.934,261.21Z" transform="translate(-616.723 -258.066)" fill="#fff"/>
        <path id="Path_16893" data-name="Path 16893" d="M625.531,269.327a7.7,7.7,0,0,0-1.16-2.459c-.843-1.141-1.4-1.537-1.645-1.594s-.918,2.292-.471,4.152.877,1.935.877,1.935Z" transform="translate(-621.333 -264.238)" fill="#e5bcc4"/>
      </g>
      <g id="Group_35710" data-name="Group 35710" transform="translate(12.134 2.016)">
        <path id="Path_16894" data-name="Path 16894" d="M694.92,274.082c-.735.632,2.877,5.285,2.877,5.285a5.5,5.5,0,0,0,1.583-2.056c.409-.941.2-1.132.2-1.132a10.17,10.17,0,0,0,.314-2.915c-.123-1.246-.225-1.169-.728-1.148A8.288,8.288,0,0,0,694.92,274.082Z" transform="translate(-694.821 -272.106)" fill="#fff"/>
        <path id="Path_16895" data-name="Path 16895" d="M698.609,282.116a7.7,7.7,0,0,1,1.787-2.05,4.2,4.2,0,0,1,2.017-1.085c.249.012.258,2.456-.679,4.123s-1.371,1.623-1.371,1.623Z" transform="translate(-698.065 -277.993)" fill="#e5bcc4"/>
      </g>
      <path id="Path_16896" data-name="Path 16896" d="M612.927,285.166c-.011-.07.781.109,1.635-2.595a5.744,5.744,0,0,1,4.88-4.329c2.049-.171,4.661.192,6.107,1.576a6.14,6.14,0,0,1,2.163,4.419c.311,2.182.25,2.788.984,3.072a3.449,3.449,0,0,1-1.942,1.369.844.844,0,0,0,.635.179s-1.22,2.561-6.955,1.742-6.855-3.569-6.855-3.569a2.252,2.252,0,0,0,.688-.041A2.986,2.986,0,0,1,612.927,285.166Z" transform="translate(-612.552 -275.312)" fill="#fff"/>
      <path id="Path_16897" data-name="Path 16897" d="M626.375,330.789c.082.284-3.1,1.355-6.34.845a10.508,10.508,0,0,1-5.4-2.442c-.38-.326.55-.833.55-.833a3.984,3.984,0,0,1-2.257-1.664,2.986,2.986,0,0,0,1.34,1.825,2.252,2.252,0,0,1-.688.041s1.12,2.75,6.855,3.569,6.955-1.742,6.955-1.742a.844.844,0,0,1-.635-.179,3.449,3.449,0,0,0,1.942-1.369A7.144,7.144,0,0,1,625.728,330,2.823,2.823,0,0,1,626.375,330.789Z" transform="translate(-612.553 -316.841)" opacity="0.07"/>
      <path id="Path_16898" data-name="Path 16898" d="M661.772,327.981a.105.105,0,0,1-.127.072c-.063-.009-.11-.055-.1-.1a.105.105,0,0,1,.127-.072C661.733,327.886,661.779,327.933,661.772,327.981Z" transform="translate(-654.186 -317.852)" fill="#c6c6c6"/>
      <path id="Path_16899" data-name="Path 16899" d="M675.313,327.408a.105.105,0,0,1-.127.072c-.064-.009-.11-.055-.1-.1a.105.105,0,0,1,.127-.072C675.274,327.313,675.32,327.36,675.313,327.408Z" transform="translate(-665.783 -317.361)" fill="#c6c6c6"/>
      <path id="Path_16900" data-name="Path 16900" d="M666.225,324.718a.105.105,0,0,1-.127.072c-.064-.009-.109-.055-.1-.1a.105.105,0,0,1,.127-.072C666.186,324.623,666.232,324.67,666.225,324.718Z" transform="translate(-658 -315.058)" fill="#c6c6c6"/>
      <path id="Path_16901" data-name="Path 16901" d="M680.488,324.663a.105.105,0,0,1-.127.072c-.063-.009-.109-.055-.1-.1a.105.105,0,0,1,.127-.072C680.449,324.568,680.495,324.615,680.488,324.663Z" transform="translate(-670.214 -315.011)" fill="#c6c6c6"/>
      <path id="Path_16902" data-name="Path 16902" d="M661.306,323.5a.105.105,0,0,1-.127.072c-.063-.009-.11-.055-.1-.1a.105.105,0,0,1,.127-.072C661.267,323.406,661.313,323.452,661.306,323.5Z" transform="translate(-653.787 -314.015)" fill="#c6c6c6"/>
      <path id="Path_16903" data-name="Path 16903" d="M681.446,328.757a.105.105,0,0,1-.127.072c-.063-.009-.109-.055-.1-.1a.105.105,0,0,1,.127-.072C681.407,328.662,681.453,328.709,681.446,328.757Z" transform="translate(-671.035 -318.517)" fill="#c6c6c6"/>
      <path id="Path_16904" data-name="Path 16904" d="M627.419,267.14a5.339,5.339,0,0,1,.4,1.169,5.415,5.415,0,0,1,.507-.364,6.786,6.786,0,0,0-.643-1.077c-.843-1.141-1.4-1.537-1.645-1.594-.019,0-.041.008-.065.032A4.879,4.879,0,0,1,627.419,267.14Z" transform="translate(-623.722 -264.239)" fill="#2f0000" opacity="0.09"/>
      <path id="Path_16905" data-name="Path 16905" d="M704.776,281.513a9.349,9.349,0,0,1,1.313-1.591c.843-.81,1.268-.873,1.283-.875-.019-.042-.04-.065-.063-.067a4.2,4.2,0,0,0-2.017,1.085,6.856,6.856,0,0,0-.966.923C704.493,281.168,704.642,281.341,704.776,281.513Z" transform="translate(-690.827 -275.977)" fill="#2f0000" opacity="0.09"/>
      <g id="Group_35711" data-name="Group 35711" transform="translate(4.286 7.359)">
        <path id="Path_16906" data-name="Path 16906" d="M687.853,314.757a.33.33,0,0,1,.14-.306,1.534,1.534,0,0,1,1.5-.176,1.584,1.584,0,0,1,.88.72,2.428,2.428,0,0,0-1.217-.541,1.281,1.281,0,0,0-1.122.262C687.9,314.863,687.853,314.757,687.853,314.757Z" transform="translate(-681.003 -313.466)" fill="#4f4d51"/>
        <path id="Path_16907" data-name="Path 16907" d="M642.741,310.165a.324.324,0,0,0-.072-.33,1.6,1.6,0,0,0-1.464-.5,1.625,1.625,0,0,0-1.042.508,2.537,2.537,0,0,1,1.339-.258c.693.087.966.33,1.067.5S642.741,310.165,642.741,310.165Z" transform="translate(-640.164 -309.317)" fill="#4f4d51"/>
        <path id="Path_16908" data-name="Path 16908" d="M661.96,327.376l.347,1.393s1.69.163,1.694.128.57-1.209.57-1.209l-.811-.284-.314-.512-.717.468-.631.06Z" transform="translate(-658.83 -324.368)" fill="#373639"/>
        <path id="Path_16909" data-name="Path 16909" d="M658.176,324.25a.849.849,0,0,0,.924.589,1.179,1.179,0,0,0,1.055-.9l.092.016a.933.933,0,0,0,.938,1.048c1.058.086,1.152-.5,1.152-.5s-.111.9-1.266.678c-.971-.188-.9-.684-.9-.684a1.255,1.255,0,0,1-1.233.519C658.107,324.942,658.176,324.25,658.176,324.25Z" transform="translate(-655.588 -321.843)" fill="#646063"/>
        <path id="Path_16910" data-name="Path 16910" d="M664.005,336.882a.782.782,0,0,1,.547-.316c.4-.067.51.127.51.127a.568.568,0,0,1,.794.17l-.385.876-.853.306-.571-.64Z" transform="translate(-660.582 -332.641)" fill="#e06232"/>
        <path id="Path_16911" data-name="Path 16911" d="M661.123,330.6a4.583,4.583,0,0,1,.248,1.117c.047.588.1,1.131.581,1.407.507.293,1.041-.1,1.345-.87a5.908,5.908,0,0,1,.709-1.406l-.245-.021a7.752,7.752,0,0,0-.476,1.008c-.17.47-.591,1.03-1.019.906a1.092,1.092,0,0,1-.656-1.044,2.862,2.862,0,0,0-.259-1.065A.172.172,0,0,0,661.123,330.6Z" transform="translate(-658.114 -327.521)" fill="#646063"/>
        <path id="Path_16912" data-name="Path 16912" d="M668.275,316.9a1.956,1.956,0,0,0-1.5-.166c-.321.13-.125.575.071.691s.4-.156.406.092c.006.169.094.222.149.238v0l.023,0,.023,0v0c.057,0,.154-.036.2-.2.063-.24.2.069.417,0S668.56,317.092,668.275,316.9Z" transform="translate(-662.805 -315.591)" fill="#4f4d51"/>
      </g>
      <path id="Path_16913" data-name="Path 16913" d="M658.136,325.1a.751.751,0,0,1-.484-.421c-.127-.278-.04-.571.024-.556s-.079.46.3.722Z" transform="translate(-650.799 -314.637)" fill="#646063"/>
      <path id="Path_16914" data-name="Path 16914" d="M679.647,327.446a.944.944,0,0,0,.794-.278c.289-.344.159-.619.1-.611s.04.326-.286.571a1.1,1.1,0,0,1-.826.119Z" transform="translate(-669.508 -316.722)" fill="#646063"/>
      <path id="Path_16915" data-name="Path 16915" d="M663.137,377.17c0,.134-.077.242-.171.242s-.171-.109-.171-.242.077-.242.171-.242S663.137,377.036,663.137,377.17Z" transform="translate(-655.259 -359.861)" fill="#efbf43"/>
      <path id="Path_16916" data-name="Path 16916" d="M669.649,336.4a.723.723,0,0,0-.341.5.637.637,0,0,1,.278-.564C669.9,336.113,669.649,336.4,669.649,336.4Z" transform="translate(-660.835 -325.024)" fill="#373639" opacity="0.37"/>
      <path id="Path_16917" data-name="Path 16917" d="M666,337.779a.221.221,0,0,1,.222-.222c.222-.008.262.135.143.214S665.98,337.946,666,337.779Z" transform="translate(-658 -326.143)" fill="#fff" opacity="0.32"/>
      <path id="Path_16918" data-name="Path 16918" d="M671.413,338.055a.222.222,0,0,1,.222-.222c.222-.008.262.135.143.214S671.4,338.222,671.413,338.055Z" transform="translate(-662.639 -326.379)" fill="#fff" opacity="0.32"/>
      <path id="Path_16919" data-name="Path 16919" d="M668.206,317.146a1.679,1.679,0,0,1,.532-.016,2.046,2.046,0,0,1,.635.182c.151.1.2.222.008.167a1.876,1.876,0,0,0-.683-.191c-.373-.016-.523.061-.611.024C667.976,317.265,668.126,317.154,668.206,317.146Z" transform="translate(-659.758 -308.637)" fill="#fff" opacity="0.31"/>
      <path id="Path_16920" data-name="Path 16920" d="M665.189,349.363a.434.434,0,0,0,.413.148.994.994,0,0,0,.508-.18s.127-.042.011.127-.254.233-.6.233a.43.43,0,0,1-.423-.307C665.072,349.289,665.146,349.257,665.189,349.363Z" transform="translate(-657.225 -336.197)" opacity="0.07"/>
      <g id="Group_35712" data-name="Group 35712" transform="translate(11.421 25.641)" opacity="0.07">
        <path id="Path_16921" data-name="Path 16921" d="M698.524,443.576l-.007.006Z" transform="translate(-697.274 -442.581)"/>
        <path id="Path_16922" data-name="Path 16922" d="M698,439.833a.558.558,0,0,1,.081.537,1.727,1.727,0,0,0,.178.032A.553.553,0,0,0,698,439.833Z" transform="translate(-696.828 -439.375)"/>
        <path id="Path_16923" data-name="Path 16923" d="M689.857,437.616a1.722,1.722,0,0,1,.518.1.956.956,0,0,0,.3.06.518.518,0,0,1-.355-.4c-.035-.235-.012-.587-.247-.74a.6.6,0,0,1,.082.552A.7.7,0,0,1,689.857,437.616Z" transform="translate(-689.857 -436.644)"/>
        <path id="Path_16924" data-name="Path 16924" d="M702.99,442.649a.3.3,0,0,1-.02.051A.142.142,0,0,0,702.99,442.649Z" transform="translate(-701.087 -441.787)"/>
        <path id="Path_16925" data-name="Path 16925" d="M702.786,439.757c-.007-.084-.048-.4-.292-.5a.514.514,0,0,1,.088.486A.5.5,0,0,0,702.786,439.757Z" transform="translate(-700.68 -438.885)"/>
        <path id="Path_16926" data-name="Path 16926" d="M702.932,443.024l0,.007Z" transform="translate(-701.051 -442.108)"/>
        <path id="Path_16927" data-name="Path 16927" d="M698.468,443.626l-.007.006Z" transform="translate(-697.226 -442.624)"/>
      </g>
      <path id="Path_16928" data-name="Path 16928" d="M648.943,440.544a.51.51,0,0,1,.241-.744c-.377.279-.042.689-.042.689A1.482,1.482,0,0,1,648.943,440.544Z" transform="translate(-643.334 -413.705)" opacity="0.07"/>
      <path id="Path_16929" data-name="Path 16929" d="M643.563,439.769a.706.706,0,0,1,.42-.648c-.307.153-.252.64-.252.64A.4.4,0,0,1,643.563,439.769Z" transform="translate(-638.789 -413.124)" opacity="0.07"/>
      <g id="Group_35713" data-name="Group 35713" transform="translate(2.528 25.641)" opacity="0.07">
        <path id="Path_16930" data-name="Path 16930" d="M633.888,443.576l.007.006Z" transform="translate(-633.031 -442.581)"/>
        <path id="Path_16931" data-name="Path 16931" d="M632.876,439.833a.559.559,0,0,0-.081.537,1.73,1.73,0,0,1-.178.032A.552.552,0,0,1,632.876,439.833Z" transform="translate(-631.938 -439.375)"/>
        <path id="Path_16932" data-name="Path 16932" d="M637.71,437.616a1.723,1.723,0,0,0-.518.1.955.955,0,0,1-.3.06.518.518,0,0,0,.355-.4c.035-.235.012-.587.247-.74a.6.6,0,0,0-.082.552A.7.7,0,0,0,637.71,437.616Z" transform="translate(-635.603 -436.644)"/>
        <path id="Path_16933" data-name="Path 16933" d="M629.344,442.649a.327.327,0,0,0,.02.051A.143.143,0,0,1,629.344,442.649Z" transform="translate(-629.14 -441.787)"/>
        <path id="Path_16934" data-name="Path 16934" d="M627.922,439.757c.007-.084.048-.4.292-.5a.514.514,0,0,0-.088.486A.5.5,0,0,1,627.922,439.757Z" transform="translate(-627.922 -438.885)"/>
        <path id="Path_16935" data-name="Path 16935" d="M629.493,443.024l0,.007Z" transform="translate(-629.267 -442.108)"/>
        <path id="Path_16936" data-name="Path 16936" d="M633.943,443.626l.007.006Z" transform="translate(-633.078 -442.624)"/>
      </g>
    </g>
  </g>
</svg>
