<svg xmlns="http://www.w3.org/2000/svg" width="35" height="35" viewBox="0 0 35 35">
  <g id="Group_35673" data-name="Group 35673" transform="translate(-44 -567)">
    <rect id="Rectangle_36" data-name="Rectangle 36" width="35" height="35" rx="9" transform="translate(44 567)" fill="#66bec5"/>
    <g id="Group_35672" data-name="Group 35672" transform="translate(-293.588 475.72)">
      <ellipse id="Ellipse_4" data-name="Ellipse 4" cx="11.249" cy="1.55" rx="11.249" ry="1.55" transform="translate(344.528 119.884)" fill="#44b6bf"/>
      <g id="Group_35668" data-name="Group 35668" transform="translate(346.433 106.533)">
        <path id="Path_16823" data-name="Path 16823" d="M429.979,222.991s-.509,2.325.421,2.945a1.98,1.98,0,0,0,1.949.044l-.022-3.189-2.436.221Z" transform="translate(-418.227 -211.456)" fill="#e6e6e6"/>
        <path id="Path_16824" data-name="Path 16824" d="M393.958,222.907s.509,2.325-.421,2.945a1.98,1.98,0,0,1-1.949.044l.022-3.189,2.436.221Z" transform="translate(-386.753 -211.387)" fill="#e6e6e6"/>
        <path id="Path_16825" data-name="Path 16825" d="M365.194,162.535a7.489,7.489,0,0,0,.091,7.29,9.661,9.661,0,0,1,.9,1.6,14.6,14.6,0,0,1,.34,2.584,2.139,2.139,0,0,0,1.511,1.917,1.818,1.818,0,0,0,1.718-.95,5.616,5.616,0,0,0,.6-1.98.4.4,0,0,1,.132-.278.394.394,0,0,1,.171-.05,36.872,36.872,0,0,1,6.43-.288.57.57,0,0,1,.283.062c.182.114.178.376.155.589a4.47,4.47,0,0,0,.026,1.528,1.521,1.521,0,0,0,2.648.792,4.233,4.233,0,0,0,.993-1.6,36.867,36.867,0,0,0,1.616-5.5,6.3,6.3,0,0,0,.243-1.671,4.948,4.948,0,0,0-.378-1.587,4.358,4.358,0,0,0-.7-1.276,4.757,4.757,0,0,0-2.551-1.319,19.641,19.641,0,0,0-2.554-.466,9.486,9.486,0,0,1-3.931-.894Z" transform="translate(-364.292 -160.648)" fill="#f7f7f7"/>
        <path id="Path_16827" data-name="Path 16827" d="M385.128,160.628a8.11,8.11,0,0,0-.124-1.459.436.436,0,0,0-.448-.366.211.211,0,0,0-.1.014h0a.485.485,0,0,0-.276.223,12.031,12.031,0,0,1-2.128,2.92c-.022-.028-.043-.056-.066-.083a4.759,4.759,0,0,0-2.55-1.319,19.67,19.67,0,0,0-2.554-.466,18.583,18.583,0,0,1-2.724-.392,4.645,4.645,0,0,1-1.207-.5l-7.739,1.49a7.5,7.5,0,0,0-.591,5.7,7.072,7.072,0,0,0,.682,1.587c.129.219.269.432.4.647a6.318,6.318,0,0,0,5.077.331c.881-.306,1.722-.8,2.589-1.173a10.165,10.165,0,0,1,2.844-.766,5.005,5.005,0,0,1,3.826.9,17.9,17.9,0,0,1,1.862,2.015c.353-1.157.635-2.338.916-3.515a8.078,8.078,0,0,0,.234-1.3c.5-.606,1.011-1.372,1.314-1.815A4.839,4.839,0,0,0,385.128,160.628Z" transform="translate(-364.303 -158.802)" fill="#4d4d4d"/>
        <path id="Path_16828" data-name="Path 16828" d="M442.035,237.7a1.769,1.769,0,0,0,.622-1.05,3.263,3.263,0,0,1-.138,1.311A1.249,1.249,0,0,1,442.035,237.7Z" transform="translate(-428.262 -222.859)" fill="#e6e6e6"/>
        <path id="Path_16829" data-name="Path 16829" d="M447.5,238.746a2.994,2.994,0,0,0,.23-1.2,3.117,3.117,0,0,1,.23,1.16A1.046,1.046,0,0,1,447.5,238.746Z" transform="translate(-432.763 -223.592)" fill="#e6e6e6"/>
        <path id="Path_16830" data-name="Path 16830" d="M381.285,238.367a1.77,1.77,0,0,0,.622-1.05,3.263,3.263,0,0,1-.138,1.311A1.251,1.251,0,0,1,381.285,238.367Z" transform="translate(-378.275 -223.408)" fill="#e6e6e6"/>
        <path id="Path_16831" data-name="Path 16831" d="M386.754,239.413a3,3,0,0,0,.23-1.2,3.116,3.116,0,0,1,.23,1.16A1.049,1.049,0,0,1,386.754,239.413Z" transform="translate(-382.775 -224.141)" fill="#e6e6e6"/>
      </g>
      <g id="Group_35669" data-name="Group 35669" transform="translate(346.128 105.135)">
        <path id="Path_16832" data-name="Path 16832" d="M430.564,153.7s-.918-.323-.6-1.107a8.734,8.734,0,0,1,1.031-1.69,2.122,2.122,0,0,1,.115,2.891Z" transform="translate(-417.971 -150.908)" fill="#41b7b7"/>
        <path id="Path_16833" data-name="Path 16833" d="M433.267,155.585s-.517-.825.221-1.239a8.736,8.736,0,0,1,1.86-.679A2.122,2.122,0,0,1,433.636,156Z" transform="translate(-420.598 -153.178)" fill="#4ec1c4"/>
        <path id="Path_16834" data-name="Path 16834" d="M375.764,164.073c-.834,1.471-4.184,6.168-7.415,7.241a.612.612,0,0,1-.4-.01c-.837-.307-4.031-1.553-5.153-3.087,0,0-.49-.62,0-1.063.435-.393,9.608-3.8,11.691-4.5a1.467,1.467,0,0,1,1.08.3l.36.223C376.1,163.389,375.9,163.827,375.764,164.073Z" transform="translate(-362.574 -160.554)" fill="#44b6bf"/>
      </g>
      <g id="Group_35670" data-name="Group 35670" transform="translate(342.588 95.28)">
        <path id="Path_16835" data-name="Path 16835" d="M347.339,107.07s-.725-2.494-4.64-1.191c0,0-.844,3.418,2.108,4.056C344.808,109.935,347.7,108.738,347.339,107.07Z" transform="translate(-342.588 -103.691)" fill="#474747"/>
        <path id="Path_16836" data-name="Path 16836" d="M350.625,111.561s-.908-1.8-3.348-.82c0,0-.12,2.292,1.864,2.8A2.96,2.96,0,0,0,350.625,111.561Z" transform="translate(-346.445 -107.761)" fill="#fcb6b6"/>
        <path id="Path_16837" data-name="Path 16837" d="M392.947,98.092s-.241-2.586,3.878-2.812c0,0,2.04,2.869-.471,4.547C396.353,99.827,393.222,99.776,392.947,98.092Z" transform="translate(-384.023 -95.28)" fill="#474747"/>
        <path id="Path_16838" data-name="Path 16838" d="M396.834,102.927s.182-2.01,2.813-1.992c0,0,.953,2.088-.707,3.285A2.959,2.959,0,0,1,396.834,102.927Z" transform="translate(-387.224 -99.933)" fill="#fcb6b6"/>
        <path id="Path_16839" data-name="Path 16839" d="M361.747,128.8a2.8,2.8,0,0,0-1.11-1.849l-1.418.2a6.373,6.373,0,0,0-5.9-5.822c-2.574-.013-5.212,2.7-5.182,6.646,0,.26.015.511.038.754l-1.3.186a3.033,3.033,0,0,0-.579,1.788c.24,2.177,3.49,3.59,7.421,3.318a8.783,8.783,0,0,0,2.24-.334C359.47,132.878,361.972,130.845,361.747,128.8Z" transform="translate(-345.626 -116.717)" fill="#f7f7f7"/>
        <path id="Path_16840" data-name="Path 16840" d="M362.145,117.256l.261-.037c-.126-4.351-4.009-7.716-7.385-7.731-3.208-.015-6.517,3.588-6.479,8.013a8.366,8.366,0,0,0,.18,1.684l.006-.011-.012.046c1.012.651,1.323-.194,1.323-.194l-.016-.038.012,0c-.023-.243-.036-.493-.038-.754a7.526,7.526,0,0,1,1.218-4.278l-.067.118.074-.029a1.6,1.6,0,0,1,1.725.12,2.393,2.393,0,0,1,.536.537,11.086,11.086,0,0,1,1.7,3.915l.558.151-.029-.24.436-.234a10.756,10.756,0,0,1,.642-4.178,2.269,2.269,0,0,1,.381-.64,1.557,1.557,0,0,1,1.531-.519,6.638,6.638,0,0,1,2.372,4.437h-.006l.007.01v0h0c.066.088.519.614,1.326-.186Z" transform="translate(-347.486 -106.971)" fill="#4d4d4d"/>
      </g>
      <g id="Group_35671" data-name="Group 35671" transform="translate(346.604 104.451)">
        <path id="Path_16841" data-name="Path 16841" d="M401.871,147.9a.766.766,0,1,1-.671-.851A.766.766,0,0,1,401.871,147.9Z" transform="translate(-394.128 -147.046)" fill="#333"/>
        <path id="Path_16842" data-name="Path 16842" d="M366.787,152.445a.766.766,0,1,1-.67-.851A.766.766,0,0,1,366.787,152.445Z" transform="translate(-365.26 -150.784)" fill="#333"/>
        <path id="Path_16843" data-name="Path 16843" d="M386.3,167.637a1.131,1.131,0,0,1-.977-.4,1.943,1.943,0,0,1-.435-.774l-.109-.95-.176.02.11.957a1.907,1.907,0,0,1-.209.845,1.115,1.115,0,0,1-.835.634c-.078,0-.055.158.022.159a1.212,1.212,0,0,0,.913-.692,1.941,1.941,0,0,0,.221-.79,1.975,1.975,0,0,0,.43.713,1.229,1.229,0,0,0,1.068.431C386.4,167.775,386.375,167.616,386.3,167.637Z" transform="translate(-380.368 -162.246)" fill="#333"/>
        <path id="Path_16844" data-name="Path 16844" d="M384.515,159.135a1.31,1.31,0,0,1-2.579.263c-.044-.427.5-.833,1.211-.905S384.471,158.708,384.515,159.135Z" transform="translate(-378.979 -156.456)" fill="#333"/>
      </g>
    </g>
  </g>
</svg>
